<svg version="1.0" xmlns="http://www.w3.org/2000/svg" width="1280" height="192" viewBox="0 0 1280 192" transform="rotate(0) scale(1, 1)">
<g transform="translate(0,192) scale(0.1,-0.1)" fill="#000000" stroke="none">
<path d="M6645 1761 c-46 -21 -79 -54 -94 -94 -8 -19 -11 -252 -11 -712 0&#10;-460 3 -693 11 -712 23 -62 100 -112 171 -113 30 0 184 73 717 340 777 388&#10;736 361 736 485 0 124 41 97 -736 485 -730 365 -713 359 -794 321z"/>
<path d="M70 1410 l0 -220 275 0 275 0 0 -475 0 -475 320 0 320 0 0 475 0 475&#10;270 0 270 0 0 220 0 220 -865 0 -865 0 0 -220z"/>
<path d="M1960 1235 c0 -445 6 -497 66 -620 97 -198 300 -327 600 -381 133&#10;-23 440 -24 570 -1 390 70 616 262 663 564 7 43 11 223 11 452 l0 381 -320 0&#10;-320 0 0 -368 c0 -409 -3 -435 -63 -514 -43 -56 -95 -84 -181 -99 -52 -9 -86&#10;-9 -139 0 -87 14 -135 39 -181 93 -63 73 -66 97 -66 515 l0 373 -320 0 -320 0&#10;0 -395z"/>
<path d="M4110 935 l0 -695 320 0 320 0 2 368 3 369 395 -368 395 -368 293 0&#10;292 -1 0 695 0 695 -320 0 -320 0 -2 -319 -3 -318 -339 318 -339 319 -349 0&#10;-348 0 0 -695z"/>
<path d="M8550 935 l0 -695 320 0 320 0 0 190 0 190 129 0 130 0 156 -190 156&#10;-190 365 0 c253 0 363 3 359 11 -4 5 -90 103 -191 216 -101 114 -184 210 -184&#10;214 0 4 12 10 28 14 51 12 157 78 208 130 132 132 162 337 77 512 -50 102&#10;-188 204 -333 247 -142 43 -206 46 -887 46 l-653 0 0 -695z m1186 244 c46 -12&#10;94 -56 94 -88 0 -25 -27 -59 -63 -79 -28 -15 -69 -17 -304 -20 l-273 -4 0 101&#10;0 101 251 0 c152 0 268 -4 295 -11z"/>
<path d="M10915 978 c-198 -359 -370 -672 -383 -695 l-24 -43 320 0 321 0 63&#10;115 63 115 362 0 362 0 63 -115 63 -115 317 0 c175 0 318 3 318 8 0 4 -171&#10;315 -378 692 l-378 685 -365 3 -365 2 -359 -652z m815 -21 c45 -81 80 -150 78&#10;-153 -3 -2 -82 -3 -176 -2 l-171 3 86 158 c48 86 90 154 94 150 4 -5 44 -75&#10;89 -156z"/>
</g>
</svg>
