<?xml version="1.0" encoding="utf-8"?>
<svg width="1036" height="338" viewBox="128.694 74.373 778.206 206.687" fill="none" xmlns="http://www.w3.org/2000/svg">
  <path d="M814.558 86H857.878L904.198 170H866.038L858.358 155.96H814.078L806.278 170H768.238L814.558 86ZM847.558 136.4L836.158 115.88L824.878 136.4H847.558Z" fill="black"/>
  <path d="M717.326 86C732.686 86 744.446 88.64 752.606 93.92C760.846 99.2 764.966 106.64 764.966 116.24C764.966 122.96 762.966 128.6 758.966 133.16C754.966 137.72 749.406 141.16 742.286 143.48L765.926 170H722.246L703.406 146.96H686.966V170H648.806V86H717.326ZM686.966 112.4V125.12H713.966C722.366 125.12 726.566 123 726.566 118.76C726.566 114.52 722.366 112.4 713.966 112.4H686.966Z" fill="black"/>
  <path d="M378.923 86H420.323L462.923 125.96V86H500.963V170H466.163L416.963 124.4V170H378.923V86Z" fill="black"/>
  <path d="M248.226 86H286.266V127.28C286.266 132.96 287.826 137.56 290.946 141.08C294.146 144.52 299.106 146.24 305.826 146.24C312.626 146.24 317.586 144.52 320.706 141.08C323.906 137.56 325.506 132.96 325.506 127.28V86H363.546V129.92C363.546 142.96 358.506 153.2 348.426 160.64C338.346 168.08 324.146 171.8 305.826 171.8C287.586 171.8 273.426 168.08 263.346 160.64C253.266 153.2 248.226 142.96 248.226 129.92V86Z" fill="black"/>
  <path d="M133.32 86H238.08V112.52H204.72V170H166.68V112.52H133.32V86Z" fill="black"/>
  <path d="M699.023 212.604V212.517H705.611L705.963 219.456C709.652 214.42 714.601 211.902 720.809 211.902C726.431 211.902 730.999 213.717 734.512 217.348C738.085 220.92 739.871 225.81 739.871 232.018V256H732.668V232.106C732.668 227.889 731.496 224.581 729.154 222.18C726.811 219.778 723.59 218.578 719.491 218.578C715.567 218.636 712.346 220.013 709.828 222.707C707.368 225.401 706.138 228.739 706.138 232.721V256H699.023V212.604Z" fill="black"/>
  <path d="M643.625 234.39C643.625 227.714 645.733 222.267 649.95 218.051C654.225 213.776 659.613 211.638 666.113 211.638C672.731 211.638 678.148 213.746 682.365 217.963C686.581 222.18 688.69 227.655 688.69 234.39C688.69 240.949 686.552 246.337 682.277 250.554C678.06 254.712 672.673 256.791 666.113 256.791C659.613 256.791 654.225 254.712 649.95 250.554C645.733 246.337 643.625 240.949 643.625 234.39ZM681.574 234.39C681.574 229.646 680.11 225.781 677.182 222.795C674.254 219.749 670.594 218.227 666.201 218.227C661.75 218.227 658.061 219.72 655.133 222.707C652.263 225.693 650.828 229.588 650.828 234.39C650.828 238.958 652.263 242.706 655.133 245.634C658.002 248.562 661.663 250.027 666.113 250.027C670.564 250.027 674.224 248.562 677.094 245.634C680.022 242.706 681.516 238.958 681.574 234.39Z" fill="black"/>
  <path d="M624.964 199.34C624.964 201.331 625.755 202.737 627.336 203.556C628.917 204.376 630.499 204.406 632.08 203.644C633.661 202.824 634.452 201.419 634.452 199.428C634.452 197.437 633.661 196.031 632.08 195.211C630.499 194.391 628.917 194.391 627.336 195.211C625.755 195.972 624.964 197.349 624.964 199.34ZM626.019 212.429H633.222V256H626.019V212.429Z" fill="black"/>
  <path d="M603.314 199.955V212.692H616.754V218.841H603.226V241.769C603.226 247.332 605.51 250.114 610.078 250.114C612.011 250.114 614.031 249.587 616.139 248.533L618.248 254.507C615.32 255.853 612.509 256.556 609.815 256.615C600.679 256.791 596.111 251.842 596.111 241.769V218.841H587.414V212.692H596.111V200.745L603.314 199.955Z" fill="black"/>
  <path d="M582 250.202L581.913 250.114C577.462 254.565 572.074 256.791 565.749 256.791C559.307 256.791 553.919 254.799 549.586 250.817C545.252 246.776 543.085 241.271 543.085 234.302C543.085 227.274 545.223 221.77 549.498 217.787C553.773 213.805 559.19 211.814 565.749 211.814C571.84 211.814 577.081 213.981 581.473 218.314L576.905 223.058C573.919 220.13 570.258 218.666 565.925 218.666C561.474 218.666 557.755 220.1 554.768 222.97C551.84 225.781 550.376 229.558 550.376 234.302C550.376 239.163 551.84 242.999 554.768 245.81C557.755 248.562 561.445 249.939 565.837 249.939C570.405 249.939 574.182 248.416 577.169 245.371L582 250.202Z" fill="black"/>
  <path d="M525.922 256H526.01L525.659 249.06C521.969 254.038 516.933 256.586 510.549 256.703C504.927 256.703 500.359 254.917 496.845 251.344C493.39 247.713 491.663 242.794 491.663 236.586V212.604H498.866V236.498C498.866 240.715 500.037 244.024 502.38 246.425C504.722 248.826 507.943 250.027 512.043 250.027C515.966 249.968 519.158 248.592 521.618 245.898C524.136 243.204 525.395 239.866 525.395 235.883V212.604H532.599V256H525.922Z" fill="black"/>
  <path d="M479.036 194.508L479.124 194.42V255.912H472.36L472.008 248.006C470.31 250.876 467.997 253.072 465.068 254.594C462.199 256.059 459.095 256.791 455.757 256.791C449.373 256.791 444.103 254.799 439.945 250.817C435.845 246.776 433.795 241.271 433.795 234.302C433.795 227.216 435.845 221.711 439.945 217.787C444.044 213.805 449.285 211.814 455.669 211.814C458.948 211.814 462.111 212.575 465.156 214.098C468.201 215.562 470.456 217.699 471.92 220.51V194.508H479.036ZM456.196 218.49H456.284C451.892 218.49 448.231 219.896 445.303 222.707C442.434 225.459 440.999 229.295 440.999 234.214C440.999 239.075 442.434 242.911 445.303 245.722C448.231 248.533 451.892 249.939 456.284 249.939C460.676 249.939 464.336 248.475 467.264 245.546C470.193 242.618 471.657 238.812 471.657 234.126C471.657 229.559 470.163 225.81 467.177 222.882C464.248 219.954 460.588 218.49 456.196 218.49Z" fill="black"/>
  <path d="M381.033 234.39C381.033 227.714 383.141 222.267 387.358 218.051C391.633 213.776 397.021 211.638 403.521 211.638C410.139 211.638 415.556 213.746 419.772 217.963C423.989 222.18 426.097 227.655 426.097 234.39C426.097 240.949 423.96 246.337 419.685 250.554C415.468 254.712 410.08 256.791 403.521 256.791C397.021 256.791 391.633 254.712 387.358 250.554C383.141 246.337 381.033 240.949 381.033 234.39ZM418.982 234.39C418.982 229.646 417.518 225.781 414.59 222.795C411.661 219.749 408.001 218.227 403.609 218.227C399.158 218.227 395.469 219.72 392.54 222.707C389.671 225.693 388.236 229.588 388.236 234.39C388.236 238.958 389.671 242.706 392.54 245.634C395.41 248.562 399.07 250.027 403.521 250.027C407.972 250.027 411.632 248.562 414.502 245.634C417.43 242.706 418.923 238.958 418.982 234.39Z" fill="black"/>
  <path d="M354.318 212.604L354.406 212.517L354.933 219.017C357.51 214.215 361.96 211.814 368.285 211.814C372.092 211.697 375.459 212.78 378.387 215.064L375.137 221.213C372.853 219.632 370.335 218.841 367.582 218.841C364.01 218.9 360.994 220.13 358.534 222.531C356.075 224.873 354.845 227.977 354.845 231.842V256H347.642V212.604H354.318Z" fill="black"/>
  <path d="M291.709 276.468V212.78H298.561L298.912 221.125C300.611 218.256 302.953 216.03 305.94 214.449C308.927 212.809 312.148 211.99 315.603 211.99C321.928 212.107 327.111 214.215 331.152 218.314C335.192 222.414 337.213 227.772 337.213 234.39C337.213 241.183 335.163 246.659 331.064 250.817C327.023 254.917 321.723 256.966 315.164 256.966C311.826 256.966 308.663 256.234 305.676 254.77C302.69 253.306 300.376 251.11 298.737 248.182V276.468H291.709ZM314.724 250.202C319.175 250.202 322.836 248.797 325.705 245.986C328.575 243.175 330.01 239.368 330.01 234.566C330.01 229.764 328.575 225.986 325.705 223.234C322.894 220.423 319.234 219.017 314.724 219.017C310.215 219.017 306.555 220.481 303.744 223.409C300.933 226.338 299.527 230.056 299.527 234.566C299.527 239.017 300.962 242.735 303.832 245.722C306.701 248.65 310.332 250.144 314.724 250.202Z" fill="black"/>
  <path d="M619.99 117.488C627.826 121.409 627.826 132.591 619.99 136.512L541.896 175.588C534.824 179.127 526.5 173.984 526.5 166.076L526.5 87.924C526.5 80.0158 534.824 74.8732 541.896 78.412L619.99 117.488Z" fill="black"/>
</svg>